<?xml-stylesheet type="text/css" href="..\css\styles.css"?>
<svg xmlns="http://www.w3.org/2000/svg" viewBox="0 0 60 68">
  <defs>
    <style>
      .cls-1{fill:#fff;}
    </style>
  </defs>
  <title>logo</title>
  <path class="cls-1" d="M10.17,32c3.57-2.79,4.88-6.59,5-10.95a27.13,27.13,0,0,1,1-6.77A13,13,0,0,1,27.46,5.23c5.45-.56,10.72-.1,14.29,4.82,1.22,1.67,2.63,3.8,2.82,5.75.38,6,.75,12,5.26,16.79-2,1.86-3.1,1.21-4.32,0-3.48-3.43-3.48-3.34-7.9-1.2a16.55,16.55,0,0,1-15.32-.28c-4-2.13-4.13-2.13-7.14,1.11-1.6,1.67-3.1,2-5,.75ZM37,23.32c-2.35,1.3-4.42,3.34-6.49,3.34-2.26,0-4.61-1.86-6.86-3-.1,3.71,1.6,5.47,5.73,5.75C34,29.81,36.11,28.14,37,23.32Z"/>
  <g id="belle" class="flash">
    <path class="cls-1" d="M29.84,62.91c-3.93,0-8,.1-11.92,0-7.71-.3-11.07-4.4-7.43-9.4s7.57-9.9,11.78-14.7c4.48-5.2,10.79-5.2,15.42-.1A177,177,0,0,1,49.6,53.31c3.79,5.2.14,9.3-8,9.6C37.83,63,33.76,62.91,29.84,62.91Z"/>
  </g>
</svg>
